<svg width="52" height="52" viewBox="0 0 52 52" fill="none" xmlns="http://www.w3.org/2000/svg">
<path d="M26.0596 52C25.2423 52 24.5502 51.4118 24.3528 50.6187C22.9667 45.0506 18.8904 38.4074 11.6458 32.974C8.25229 30.4139 4.8064 28.6391 1.40021 27.6956C0.590539 27.4713 0 26.7527 0 25.9126C0 25.0904 0.56567 24.381 1.35521 24.1516C8.53033 22.0674 15.4509 17.1241 19.974 10.5625C22.0989 7.49313 23.5549 4.47522 24.342 1.37418C24.5428 0.582873 25.2371 0 26.0535 0C26.8825 0 27.5833 0.600237 27.7812 1.4053C29.3681 7.85895 34.4102 14.7674 41.099 19.5C44.1862 21.6967 47.3776 23.2687 50.6275 24.1703C51.423 24.3911 52 25.0991 52 25.9247C52 26.7572 51.4133 27.4684 50.6124 27.6954C43.4352 29.7297 35.4857 36.0317 31.4167 42.4531C29.5924 45.3605 28.3922 48.0759 27.7755 50.5993C27.5797 51.4002 26.884 52 26.0596 52Z" fill="#147DC6"/>
</svg>
